name 900006_30EmgEnv.mot
datacolumns 51
datarows 11
range 0.42592594 0.43518519
endheader

                time	   rect_fem_r_emgRec	   rect_fem_l_emgRec	   med_hams_r_emgRec	   med_hams_l_emgRec	   lat_hams_r_emgRec	   lat_hams_l_emgRec	    tib_ant_r_emgRec	    tib_ant_l_emgRec	    gas_sol_r_emgRec	    gas_sol_l_emgRec	   rect_fem_r_emgEnv	   rect_fem_l_emgEnv	   med_hams_r_emgEnv	   med_hams_l_emgEnv	   lat_hams_r_emgEnv	   lat_hams_l_emgEnv	    tib_ant_r_emgEnv	    tib_ant_l_emgEnv	    gas_sol_r_emgEnv	    gas_sol_l_emgEnv	   rect_fem_r_emgAve	   rect_fem_l_emgAve	   med_hams_r_emgAve	   med_hams_l_emgAve	   lat_hams_r_emgAve	   lat_hams_l_emgAve	    tib_ant_r_emgAve	    tib_ant_l_emgAve	    gas_sol_r_emgAve	    gas_sol_l_emgAve	   rect_fem_r_emgSDp	   rect_fem_l_emgSDp	   med_hams_r_emgSDp	   med_hams_l_emgSDp	   lat_hams_r_emgSDp	   lat_hams_l_emgSDp	    tib_ant_r_emgSDp	    tib_ant_l_emgSDp	    gas_sol_r_emgSDp	    gas_sol_l_emgSDp	   rect_fem_r_emgSDm	   rect_fem_l_emgSDm	   med_hams_r_emgSDm	   med_hams_l_emgSDm	   lat_hams_r_emgSDm	   lat_hams_l_emgSDm	    tib_ant_r_emgSDm	    tib_ant_l_emgSDm	    gas_sol_r_emgSDm	    gas_sol_l_emgSDm	
          0.42592594	          0.02772437	          0.07996152	          0.13011156	          0.01175221	          0.09823389	          0.03391629	          0.09239584	          0.19785637	          0.28860048	          0.03256710	          0.13862157	          0.28870811	          0.14878890	          0.42812182	          0.39264207	          0.17872144	          0.24028221	          0.47929984	          0.50970887	          0.11393776	          0.14793709	          0.39586210	          0.18610342	          0.40220821	          0.30191192	          0.29548466	          0.08572378	          0.54927516	          0.46638820	          0.23811543	          0.19841474	          0.67971358	          0.31476672	          0.55271478	          0.50971046	          0.50706434	          0.13455908	          0.85409823	          0.62527601	          0.45796829	          0.09745944	          0.11201063	          0.05744012	          0.25170164	          0.09411338	          0.08390498	          0.03688848	          0.24445209	          0.30750038	          0.01826257	
          0.42685187	          0.02249628	          0.08080702	          0.05563667	          0.03370345	          0.01442462	          0.06570941	          0.00712961	          0.17676814	          0.13935492	          0.02856171	          0.13988773	          0.29097976	          0.14501461	          0.43193275	          0.38862464	          0.18249215	          0.23731842	          0.48351379	          0.50181711	          0.11586856	          0.14851554	          0.39890328	          0.18545151	          0.40336999	          0.30182409	          0.29559401	          0.08639573	          0.55168974	          0.46368754	          0.23990905	          0.19929649	          0.68289059	          0.31351833	          0.55421297	          0.50969902	          0.50650911	          0.13573701	          0.85755688	          0.62265161	          0.46183246	          0.09773458	          0.11491597	          0.05738468	          0.25252701	          0.09394917	          0.08467890	          0.03705444	          0.24582261	          0.30472347	          0.01798564	
          0.42777777	          0.02110176	          0.03068957	          0.02269704	          0.08290063	          0.04985555	          0.08474328	          0.06715754	          0.12542148	          0.02099052	          0.00684616	          0.14118596	          0.29306184	          0.14128821	          0.43573688	          0.38456333	          0.18625176	          0.23422765	          0.48781975	          0.49376001	          0.11779317	          0.14908439	          0.40193689	          0.18479817	          0.40452328	          0.30170727	          0.29567328	          0.08709950	          0.55403870	          0.46095636	          0.24167085	          0.20016984	          0.68603739	          0.31226438	          0.55572370	          0.50964892	          0.50590557	          0.13695810	          0.86090878	          0.61997683	          0.46563028	          0.09799894	          0.11783639	          0.05733195	          0.25332287	          0.09376562	          0.08544099	          0.03724090	          0.24716863	          0.30193590	          0.01771142	
          0.42870370	          0.01652874	          0.04204258	          0.00708236	          0.04970489	          0.14432053	          0.08227178	          0.07682470	          0.04470087	          0.04280172	          0.00349032	          0.14251698	          0.29494957	          0.13761346	          0.43953495	          0.38045770	          0.18999338	          0.23101454	          0.49222015	          0.48554758	          0.11971053	          0.14964367	          0.40496278	          0.18414339	          0.40566799	          0.30156156	          0.29572242	          0.08783514	          0.55632168	          0.45819470	          0.24340044	          0.20103472	          0.68915391	          0.31100491	          0.55724701	          0.50956032	          0.50525369	          0.13822233	          0.86415336	          0.61725168	          0.46936096	          0.09825262	          0.12077165	          0.05728188	          0.25408897	          0.09356281	          0.08619116	          0.03744795	          0.24849001	          0.29913773	          0.01743992	
          0.42962962	          0.03046688	          0.09554167	          0.06287965	          0.07407671	          0.16271162	          0.01280047	          0.01236866	          0.12559958	          0.28382574	          0.00497032	          0.14388139	          0.29663876	          0.13399401	          0.44332767	          0.37630734	          0.19371010	          0.22768391	          0.49671746	          0.47719020	          0.12161959	          0.15019311	          0.40798038	          0.18348728	          0.40680417	          0.30138692	          0.29574144	          0.08860265	          0.55853760	          0.45540312	          0.24509710	          0.20189083	          0.69223970	          0.30974010	          0.55878310	          0.50943308	          0.50455375	          0.13952963	          0.86728919	          0.61447665	          0.47302298	          0.09849539	          0.12372106	          0.05723447	          0.25482525	          0.09334077	          0.08692913	          0.03767566	          0.24978602	          0.29632959	          0.01717122	
          0.43055555	          0.04875705	          0.22391498	          0.05382669	          0.17099200	          0.05231371	          0.07702227	          0.08795907	          0.30920535	          0.10657103	          0.01909756	          0.14527962	          0.29812587	          0.13043343	          0.44711561	          0.37211187	          0.19739502	          0.22424079	          0.50131413	          0.46869854	          0.12351936	          0.15073267	          0.41098934	          0.18282992	          0.40793160	          0.30118325	          0.29573017	          0.08940195	          0.56068611	          0.45258176	          0.24676040	          0.20273803	          0.69529444	          0.30847010	          0.56033190	          0.50926709	          0.50380580	          0.14087985	          0.87031558	          0.61165179	          0.47661537	          0.09872730	          0.12668425	          0.05718973	          0.25553130	          0.09309942	          0.08765455	          0.03792404	          0.25105664	          0.29351173	          0.01690543	
          0.43148148	          0.04015658	          0.36889723	          0.02002961	          0.16512919	          0.22035363	          0.13100779	          0.08935948	          0.29030568	          0.14774425	          0.00402377	          0.14671197	          0.29940804	          0.12693520	          0.45089926	          0.36787098	          0.20104129	          0.22069038	          0.50601260	          0.46008357	          0.12540885	          0.15126219	          0.41398934	          0.18217131	          0.40905020	          0.30095062	          0.29568869	          0.09023307	          0.56276631	          0.44973108	          0.24838980	          0.20357611	          0.69831780	          0.30719502	          0.56189346	          0.50906236	          0.50301002	          0.14227294	          0.87323138	          0.60877758	          0.48013709	          0.09894828	          0.12966087	          0.05714761	          0.25620693	          0.09283887	          0.08836736	          0.03819319	          0.25230125	          0.29068458	          0.01664250	
          0.43240741	          0.03383716	          0.33911794	          0.01382724	          0.15362949	          0.17424491	          0.17676421	          0.04542751	          0.17107902	          0.02534537	          0.01869822	          0.14817858	          0.30048311	          0.12350268	          0.45467900	          0.36358447	          0.20464211	          0.21703801	          0.51081531	          0.45135645	          0.12728716	          0.15178156	          0.41697985	          0.18151155	          0.41015989	          0.30068901	          0.29561695	          0.09109592	          0.56477773	          0.44685131	          0.24998476	          0.20440485	          0.70130953	          0.30591503	          0.56346780	          0.50881892	          0.50216658	          0.14370874	          0.87603587	          0.60585423	          0.48358694	          0.09915827	          0.13265017	          0.05710807	          0.25685197	          0.09255910	          0.08906732	          0.03848311	          0.25351959	          0.28784840	          0.01638258	
          0.43333334	          0.01355875	          0.20399385	          0.00847913	          0.21737032	          0.04978035	          0.16673919	          0.01026497	          0.07890767	          0.02020448	          0.02057635	          0.14967941	          0.30134963	          0.12013912	          0.45845509	          0.35925224	          0.20819075	          0.21328918	          0.51572463	          0.44252853	          0.12915341	          0.15229066	          0.41996044	          0.18085073	          0.41126058	          0.30039841	          0.29551491	          0.09199051	          0.56671977	          0.44394282	          0.25154483	          0.20522410	          0.70426920	          0.30463029	          0.56505494	          0.50853664	          0.50127563	          0.14518715	          0.87872812	          0.60288201	          0.48696397	          0.09935722	          0.13565168	          0.05707116	          0.25746621	          0.09226018	          0.08975419	          0.03879387	          0.25471142	          0.28500362	          0.01612569	
          0.43425927	          0.03155342	          0.15096604	          0.02991308	          0.22053490	          0.06394644	          0.08366153	          0.04154639	          0.08801257	          0.01501914	          0.01607242	          0.15121424	          0.30200693	          0.11684764	          0.46222768	          0.35487433	          0.21168058	          0.20944950	          0.52074293	          0.43361133	          0.13100679	          0.15278941	          0.42293090	          0.18018883	          0.41235217	          0.30007887	          0.29538256	          0.09291676	          0.56859195	          0.44100598	          0.25306961	          0.20603370	          0.70719665	          0.30334088	          0.56665483	          0.50821555	          0.50033733	          0.14670803	          0.88130751	          0.59986132	          0.49026731	          0.09954512	          0.13866514	          0.05703679	          0.25804952	          0.09194219	          0.09042779	          0.03912548	          0.25587639	          0.28215063	          0.01587191	
          0.43518519	          0.03862938	          0.09354835	          0.02596489	          0.05223241	          0.07765416	          0.00094613	          0.08291840	          0.18397590	          0.06431731	          0.06175107	          0.15278264	          0.30245511	          0.11363124	          0.46599675	          0.35045096	          0.21510509	          0.20552470	          0.52587249	          0.42461642	          0.13284652	          0.15327762	          0.42589059	          0.17952590	          0.41343462	          0.29973039	          0.29521990	          0.09387460	          0.57039356	          0.43804112	          0.25455859	          0.20683338	          0.71009144	          0.30204687	          0.56826754	          0.50785567	          0.49935190	          0.14827121	          0.88377318	          0.59679247	          0.49349593	          0.09972186	          0.14168975	          0.05700492	          0.25860171	          0.09160511	          0.09108789	          0.03947799	          0.25701395	          0.27928977	          0.01562126	
